# xmcd
#
# Track frame offsets: 
#        150
#        12030
#        23487
#        41126
#        57782
#        69061
#        79659
#        89824
#        94454
#        104826
#        121826
#        135371
#        145168
#        159556
#        188476
#        203850
#        205921
#        221678
#        232310
#        255149
#        273579
#        286615
#        304062
#        306962
#        325530
#        336270
#        347063
#
# Disc length: 4779 seconds
#
# Revision: 0
# Processed by: cddbd v1.5.2PL0 Copyright (c) Steve Scherf et al.
# Submitted via: ExactAudioCopy v0.95b3
#
DISCID=8112a91b
DTITLE=The Beatles  - Magical Mystery Year - Deluxe Edition 09 Purple 
DTITLE=Chick-Disc 4 - sessions  FLAC
DYEAR=1900
DGENRE=
TTITLE0=The Inner Light - stereo backing track
TTITLE1=Lady Madonna - take 3
TTITLE2=Across The Universe - take 2
TTITLE3=Across The Universe - take 7
TTITLE4=Lady Madonna - overdub track
TTITLE5=Lady Madonna - take 4
TTITLE6=Lady Madonna - take 4 and overdub track
TTITLE7=Lady Madonna - take 5 false starts
TTITLE8=Lady Madonna - take 5
TTITLE9=All You Need Is Love (YSS)
TTITLE10=Baby You're A Rich Man (YSS)
TTITLE11=All Together Now (YSS)
TTITLE12=Hey Bulldog (YSS)
TTITLE13=It's All Too Much (YSS)
TTITLE14=Hello Goodbye (1993 mix)
TTITLE15=All You Need Is Love (take unknown) (ant DVD)
TTITLE16=Across The Universe (ant 2)
TTITLE17=Lady Madonna (ant 2)
TTITLE18=Rumitape part 1
TTITLE19=Rumitape part 2
TTITLE20=Rumitape part 3
TTITLE21=Rumitape part 4
TTITLE22=Rumitape part 5
TTITLE23=Across The Universe - take 2 monitor mix
TTITLE24=Lady Madonna - monitor mix a
TTITLE25=Lady Madonna - monitor mix b
TTITLE26=Lady Madonna - monitor mix c
EXTD=
EXTT0=
EXTT1=
EXTT2=
EXTT3=
EXTT4=
EXTT5=
EXTT6=
EXTT7=
EXTT8=
EXTT9=
EXTT10=
EXTT11=
EXTT12=
EXTT13=
EXTT14=
EXTT15=
EXTT16=
EXTT17=
EXTT18=
EXTT19=
EXTT20=
EXTT21=
EXTT22=
EXTT23=
EXTT24=
EXTT25=
EXTT26=
PLAYORDER=
